<svg xmlns="http://www.w3.org/2000/svg" xmlns:xlink="http://www.w3.org/1999/xlink" width="51.001" height="51.006" viewBox="0 0 51.001 51.006"><defs><filter id="a" x="0" y="0" width="51.001" height="51.006" filterUnits="userSpaceOnUse"><feOffset input="SourceAlpha"/><feGaussianBlur stdDeviation="4" result="b"/><feFlood flood-color="#fff" flood-opacity="0.325"/><feComposite operator="in" in2="b"/><feComposite in="SourceGraphic"/></filter></defs><g transform="translate(12 12)"><path d="M26.634,23.348,21.376,18.09a1.265,1.265,0,0,0-.9-.369h-.86a10.965,10.965,0,1,0-1.9,1.9v.86a1.265,1.265,0,0,0,.369.9l5.258,5.258a1.261,1.261,0,0,0,1.788,0l1.493-1.493A1.272,1.272,0,0,0,26.634,23.348ZM10.97,17.721a6.751,6.751,0,1,1,6.751-6.751A6.747,6.747,0,0,1,10.97,17.721Z" fill="#a3cc56"/><g transform="matrix(1, 0, 0, 1, -12, -12)" filter="url(#a)"><path d="M26.634,23.348,21.376,18.09a1.265,1.265,0,0,0-.9-.369h-.86a10.965,10.965,0,1,0-1.9,1.9v.86a1.265,1.265,0,0,0,.369.9l5.258,5.258a1.261,1.261,0,0,0,1.788,0l1.493-1.493A1.272,1.272,0,0,0,26.634,23.348ZM10.97,17.721a6.751,6.751,0,1,1,6.751-6.751A6.747,6.747,0,0,1,10.97,17.721Z" transform="translate(12 12)" fill="#fff" opacity="0"/></g></g></svg>