<svg xmlns="http://www.w3.org/2000/svg" width="26.22" height="23.252" viewBox="0 0 26.22 23.252"><g transform="translate(1.5 1.5)"><path d="M23.752,6.288a6.11,6.11,0,0,0-8.642,0L13.933,7.465,12.755,6.288A6.111,6.111,0,1,0,4.113,14.93L5.29,16.107l8.642,8.642,8.642-8.642,1.177-1.177a6.11,6.11,0,0,0,0-8.642Z" transform="translate(-2.323 -4.497)" fill="none" stroke="#beef62" stroke-linecap="round" stroke-linejoin="round" stroke-width="3"/><path d="M23.752,6.288a6.11,6.11,0,0,0-8.642,0L13.933,7.465,12.755,6.288A6.111,6.111,0,1,0,4.113,14.93L5.29,16.107l8.642,8.642,8.642-8.642,1.177-1.177a6.11,6.11,0,0,0,0-8.642Z" transform="translate(-2.323 -4.497)" fill="#beef62" stroke="#beef62" stroke-linecap="round" stroke-linejoin="round" stroke-width="3" opacity="0"/></g></svg>