<svg xmlns="http://www.w3.org/2000/svg" xmlns:xlink="http://www.w3.org/1999/xlink" width="51.003" height="51.003" viewBox="0 0 51.003 51.003"><defs><filter id="a" x="0" y="0" width="51.003" height="51.003" filterUnits="userSpaceOnUse"><feOffset input="SourceAlpha"/><feGaussianBlur stdDeviation="4" result="b"/><feFlood flood-color="#fff" flood-opacity="0.255"/><feComposite operator="in" in2="b"/><feComposite in="SourceGraphic"/></filter></defs><g transform="translate(12 12)"><path d="M26.479,3.038A1.78,1.78,0,0,0,25.221,0H1.783A1.78,1.78,0,0,0,.525,3.038L11.814,14.326V24.472H8.86a2.11,2.11,0,0,0-2.11,2.11A.422.422,0,0,0,7.173,27H19.831a.422.422,0,0,0,.422-.422,2.11,2.11,0,0,0-2.11-2.11H15.189V14.326ZM23.4,2.532,20.873,5.063H6.131L3.6,2.532H23.4Z" transform="translate(0)" fill="#a3cc56"/><g transform="matrix(1, 0, 0, 1, -12, -12)" filter="url(#a)"><path d="M26.479,3.038A1.78,1.78,0,0,0,25.221,0H1.783A1.78,1.78,0,0,0,.525,3.038L11.814,14.326V24.472H8.86a2.11,2.11,0,0,0-2.11,2.11A.422.422,0,0,0,7.173,27H19.831a.422.422,0,0,0,.422-.422,2.11,2.11,0,0,0-2.11-2.11H15.189V14.326ZM23.4,2.532,20.873,5.063H6.131L3.6,2.532H23.4Z" transform="translate(12 12)" fill="#fff" opacity="0"/></g></g></svg>