<svg xmlns="http://www.w3.org/2000/svg" width="359.935" height="565.344" viewBox="0 0 359.935 565.344"><g transform="translate(0.03 0.035)"><g transform="translate(1.004 1.018)"><path d="M2.85,63.643c10.5,23.819,116.55,163.17,116.55,163.17s1.414,3.251,43.821,1.23c6.064-.3,13.74,2.262,21.119,12.03s51.652-20.978,51.44-37.036c-.141-10.673-12.072-12.821-12.256-23.9s12.468-39.722,2.431-49.15C220.9,125.218,123.259,32.19,72.144,2.759,53.584-7.956-10.636,33.053,2.85,63.643Z" transform="translate(-1.004 -1.018)" fill="none" stroke="rgba(255,255,255,0.11)" stroke-miterlimit="10" stroke-width="2"/><path d="M192.415,92.4C151.266,87.647,87.725,116.5,82,184.011" transform="translate(32.494 36.567)" fill="none" stroke="rgba(255,255,255,0.11)" stroke-linecap="round" stroke-linejoin="round" stroke-width="2"/><path d="M134.979,246.6c-7.973,6.955,69.011,79.67,73.224,91.162,2.6,7.068,5.343,93.636,1,102.867-2.757,5.852-25.883,2.163-41.644,17.642-15.055,14.8,114.826,13.613,105.411,2.474-10.63-12.581-33.53-15.8-40.033-18.5-7.789-3.237-5.654-91.077-1.626-104.478,4.523-14.857,77.747-80.8,72.008-87.9C286.007,228.659,163.067,222.071,134.979,246.6Z" transform="translate(54.167 94.052)" fill="none" stroke="rgba(255,255,255,0.11)" stroke-miterlimit="10" stroke-width="2"/><path d="M145.348,169.614s-1,.424-.622,8.736-2.686,16.765,0,26.547-.933,21.359.735,29.29,4.736,15.38,11.7,25.445c7.958,11.549,11.181,6.8,9.9,16.878s-10.885,10.164-7.817,22.617c3.562,14.362,42.408,53.9,51.03,59.625,7.068,4.736,19.2-8.015,43.383-31.014,17.6-16.723,7.506-14.433,7.506-14.433s-30.618,11.832-42.7,8.128-18.264-14.447-20.893-20.214S183.8,285.67,187.572,279.04s3.59-14.97-7.464-22.716-12.482-9.641-13.175-19.79-5.16-19.861-12.185-29.106c-6.192-8.171-1.074-40.57-4.792-40.528C148.486,166.9,145.348,169.614,145.348,169.614Z" transform="translate(57.976 67.588)" fill="#96dd35" stroke="rgba(255,255,255,0.11)" stroke-width="1"/><path d="M170.3,129.69s-30.689,4.241-39.326,23.918" transform="translate(52.748 52.199)" fill="none" stroke="rgba(255,255,255,0.11)" stroke-linecap="round" stroke-linejoin="round" stroke-width="2"/><path d="M298.026,246.23C272.793,268.3,213.733,279.336,147.21,253.3" transform="translate(59.464 100.398)" fill="none" stroke="rgba(255,255,255,0.11)" stroke-linecap="round" stroke-linejoin="round" stroke-width="2"/><path d="M210.69,386.71s11.874,3.28,14.334,5.739" transform="translate(85.719 158.499)" fill="none" stroke="rgba(255,255,255,0.11)" stroke-linecap="round" stroke-linejoin="round" stroke-width="2"/><path d="M201.185,305.34s-5.725,4.933-4.933,11.309" transform="translate(79.716 124.845)" fill="none" stroke="rgba(255,255,255,0.11)" stroke-linecap="round" stroke-linejoin="round" stroke-width="2"/><path d="M133.48,170.418s.65-4.552,11.1-12.058" transform="translate(53.786 64.056)" fill="none" stroke="rgba(255,255,255,0.11)" stroke-linecap="round" stroke-linejoin="round" stroke-width="2"/></g></g></svg>